<mxfile host="Electron" agent="Mozilla/5.0 (Windows NT 10.0; Win64; x64) AppleWebKit/537.36 (KHTML, like Gecko) draw.io/24.7.17 Chrome/128.0.6613.36 Electron/32.0.1 Safari/537.36" version="24.7.17">
  <diagram name="Trang-1" id="K8AVT1nDMmchgd0yexbL">
    <mxGraphModel dx="1434" dy="844" grid="1" gridSize="10" guides="1" tooltips="1" connect="1" arrows="1" fold="1" page="1" pageScale="1" pageWidth="850" pageHeight="1100" math="0" shadow="0">
      <root>
        <mxCell id="0" />
        <mxCell id="1" parent="0" />
        <mxCell id="3XnTuwokEoqyiFMT7FFD-6" style="edgeStyle=orthogonalEdgeStyle;rounded=0;orthogonalLoop=1;jettySize=auto;html=1;exitX=0.5;exitY=1;exitDx=0;exitDy=0;entryX=0.5;entryY=0;entryDx=0;entryDy=0;" edge="1" parent="1" source="3XnTuwokEoqyiFMT7FFD-1" target="3XnTuwokEoqyiFMT7FFD-2">
          <mxGeometry relative="1" as="geometry" />
        </mxCell>
        <mxCell id="3XnTuwokEoqyiFMT7FFD-1" value="Bắt đầu vẽ" style="rounded=1;whiteSpace=wrap;html=1;" vertex="1" parent="1">
          <mxGeometry x="365" y="20" width="120" height="60" as="geometry" />
        </mxCell>
        <mxCell id="3XnTuwokEoqyiFMT7FFD-7" style="edgeStyle=orthogonalEdgeStyle;rounded=0;orthogonalLoop=1;jettySize=auto;html=1;exitX=0.5;exitY=1;exitDx=0;exitDy=0;entryX=0.5;entryY=0;entryDx=0;entryDy=0;" edge="1" parent="1" source="3XnTuwokEoqyiFMT7FFD-2" target="3XnTuwokEoqyiFMT7FFD-3">
          <mxGeometry relative="1" as="geometry" />
        </mxCell>
        <mxCell id="3XnTuwokEoqyiFMT7FFD-2" value="Nhận P, Vị trí của đỉnh" style="shape=parallelogram;perimeter=parallelogramPerimeter;whiteSpace=wrap;html=1;fixedSize=1;" vertex="1" parent="1">
          <mxGeometry x="365" y="120" width="120" height="60" as="geometry" />
        </mxCell>
        <mxCell id="3XnTuwokEoqyiFMT7FFD-8" style="edgeStyle=orthogonalEdgeStyle;rounded=0;orthogonalLoop=1;jettySize=auto;html=1;exitX=0.5;exitY=1;exitDx=0;exitDy=0;entryX=0.5;entryY=0;entryDx=0;entryDy=0;" edge="1" parent="1" source="3XnTuwokEoqyiFMT7FFD-3" target="3XnTuwokEoqyiFMT7FFD-4">
          <mxGeometry relative="1" as="geometry" />
        </mxCell>
        <mxCell id="3XnTuwokEoqyiFMT7FFD-3" value="Vòng lặp qua các phần tử của mảng Vị trí đỉnh" style="rounded=0;whiteSpace=wrap;html=1;" vertex="1" parent="1">
          <mxGeometry x="365" y="220" width="120" height="60" as="geometry" />
        </mxCell>
        <mxCell id="3XnTuwokEoqyiFMT7FFD-9" style="edgeStyle=orthogonalEdgeStyle;rounded=0;orthogonalLoop=1;jettySize=auto;html=1;exitX=0.5;exitY=1;exitDx=0;exitDy=0;entryX=0.5;entryY=0;entryDx=0;entryDy=0;" edge="1" parent="1" source="3XnTuwokEoqyiFMT7FFD-4" target="3XnTuwokEoqyiFMT7FFD-5">
          <mxGeometry relative="1" as="geometry" />
        </mxCell>
        <mxCell id="3XnTuwokEoqyiFMT7FFD-4" value="Cho biến tạm X Y chứa toạ độ X Y của đỉnh" style="rounded=0;whiteSpace=wrap;html=1;" vertex="1" parent="1">
          <mxGeometry x="365" y="320" width="120" height="60" as="geometry" />
        </mxCell>
        <mxCell id="3XnTuwokEoqyiFMT7FFD-11" style="edgeStyle=orthogonalEdgeStyle;rounded=0;orthogonalLoop=1;jettySize=auto;html=1;exitX=0.5;exitY=1;exitDx=0;exitDy=0;entryX=0.5;entryY=0;entryDx=0;entryDy=0;" edge="1" parent="1" source="3XnTuwokEoqyiFMT7FFD-5" target="3XnTuwokEoqyiFMT7FFD-10">
          <mxGeometry relative="1" as="geometry" />
        </mxCell>
        <mxCell id="3XnTuwokEoqyiFMT7FFD-5" value="Sử dụng p5.js vẽ hình eclipse và hiện tên đỉnh trên hình đó" style="rounded=0;whiteSpace=wrap;html=1;" vertex="1" parent="1">
          <mxGeometry x="365" y="420" width="120" height="60" as="geometry" />
        </mxCell>
        <mxCell id="3XnTuwokEoqyiFMT7FFD-10" value="Kết thúc vẽ" style="rounded=1;whiteSpace=wrap;html=1;" vertex="1" parent="1">
          <mxGeometry x="365" y="520" width="120" height="60" as="geometry" />
        </mxCell>
      </root>
    </mxGraphModel>
  </diagram>
</mxfile>
